<?xml version="1.0" encoding="UTF-8"?>
<svg xmlns="http://www.w3.org/2000/svg" xmlns:xlink="http://www.w3.org/1999/xlink" width="40px" height="40px" viewBox="0 0 40 40" version="1.1">
<g id="surface1">
<path style=" stroke:none;fill-rule:nonzero;fill:rgb(94.117647%,67.058825%,10.588235%);fill-opacity:1;" d="M 24.199219 34.179688 C 22.820312 34.179688 21.585938 34.214844 20.601562 34.320312 C 19.613281 34.214844 18.378906 34.179688 17 34.179688 C 13.015625 34.179688 9.453125 35.695312 9.453125 36.824219 C 9.453125 37.917969 12.417969 37.777344 16.367188 37.742188 C 17.953125 37.742188 19.4375 37.566406 20.636719 37.285156 C 21.800781 37.53125 23.246094 37.707031 24.796875 37.707031 C 28.78125 37.742188 31.710938 37.882812 31.710938 36.789062 C 31.710938 35.695312 28.183594 34.179688 24.199219 34.179688 Z M 24.199219 34.179688 "/>
<path style=" stroke:none;fill-rule:nonzero;fill:rgb(1.568628%,0%,0%);fill-opacity:1;" d="M 34.109375 23.316406 C 33.367188 21.269531 32.523438 19.257812 31.640625 17.285156 C 31.675781 16.789062 31.710938 16.332031 31.710938 15.835938 C 31.710938 8.253906 27.832031 2.117188 20.457031 2.117188 C 13.085938 2.117188 9.207031 8.253906 9.207031 15.835938 C 9.207031 16.296875 9.242188 16.753906 9.277344 17.214844 C 8.359375 19.222656 7.546875 21.269531 6.773438 23.351562 C 5.21875 27.546875 5.148438 31.359375 5.679688 31.640625 C 6.066406 31.851562 7.476562 30.371094 8.78125 28.007812 C 9.664062 33.617188 13.402344 37.8125 20.421875 37.8125 C 27.441406 37.8125 31.183594 33.652344 32.0625 28.042969 C 33.402344 30.371094 34.78125 31.816406 35.167969 31.605469 C 35.730469 31.324219 35.660156 27.511719 34.109375 23.316406 Z M 34.109375 23.316406 "/>
<path style=" stroke:none;fill-rule:nonzero;fill:rgb(100%,100%,100%);fill-opacity:1;" d="M 17.601562 6.5625 C 16.507812 6.597656 15.660156 7.867188 15.695312 9.417969 C 15.730469 10.96875 16.613281 12.203125 17.707031 12.203125 C 18.800781 12.167969 19.648438 10.898438 19.613281 9.347656 C 19.578125 7.796875 18.695312 6.5625 17.601562 6.5625 Z M 23.597656 6.597656 C 22.503906 6.5625 21.585938 7.796875 21.550781 9.347656 C 21.515625 10.898438 22.398438 12.167969 23.492188 12.167969 C 24.585938 12.203125 25.503906 10.96875 25.539062 9.417969 C 25.539062 7.902344 24.691406 6.632812 23.597656 6.597656 Z M 27.691406 19.046875 C 25.574219 19.398438 23.105469 19.613281 20.492188 19.613281 C 17.917969 19.613281 15.519531 19.398438 13.4375 19.046875 C 11.992188 20.882812 11.886719 23.527344 11.886719 26.453125 C 11.886719 31.851562 14.957031 36.226562 20.601562 36.226562 C 26.242188 36.226562 29.3125 31.851562 29.3125 26.453125 C 29.277344 23.492188 29.171875 20.847656 27.691406 19.046875 Z M 27.691406 19.046875 "/>
<path style=" stroke:none;fill-rule:nonzero;fill:rgb(94.117647%,67.058825%,10.588235%);fill-opacity:1;" d="M 20.5625 13.121094 C 16.753906 13.121094 13.6875 13.898438 13.6875 14.496094 C 13.6875 15.097656 17.707031 16.789062 20.5625 16.789062 C 23.421875 16.789062 27.441406 15.0625 27.441406 14.496094 C 27.441406 13.933594 24.375 13.121094 20.5625 13.121094 Z M 20.5625 13.121094 "/>
<path style=" stroke:none;fill-rule:nonzero;fill:rgb(85.882354%,16.078432%,12.941177%);fill-opacity:1;" d="M 31.535156 17.144531 L 31.535156 17.109375 C 28.746094 18.023438 24.796875 18.589844 20.457031 18.589844 C 16.085938 18.589844 12.132812 18.023438 9.347656 17.074219 C 8.746094 18.414062 8.183594 19.71875 7.65625 21.09375 C 9.382812 21.65625 11.289062 22.117188 13.367188 22.433594 L 13.367188 27.546875 C 13.367188 27.546875 14.851562 27.832031 16.226562 27.867188 C 17.214844 27.902344 18.238281 27.726562 18.238281 27.726562 L 18.238281 22.925781 C 18.941406 22.964844 19.683594 22.964844 20.421875 22.964844 C 25.21875 22.964844 29.628906 22.257812 33.191406 21.09375 C 32.699219 19.789062 32.132812 18.484375 31.535156 17.144531 Z M 31.535156 17.144531 "/>
<path style=" stroke:none;fill-rule:nonzero;fill:rgb(1.568628%,0%,0%);fill-opacity:1;" d="M 18.238281 8.535156 C 17.742188 8.535156 17.355469 9.03125 17.355469 9.664062 C 17.355469 10.300781 17.742188 10.792969 18.238281 10.792969 C 18.730469 10.792969 19.117188 10.300781 19.117188 9.664062 C 19.117188 9.03125 18.730469 8.535156 18.238281 8.535156 Z M 24.585938 9.242188 C 24.585938 9.242188 24.234375 8.816406 23.351562 8.925781 C 22.503906 9.03125 22.152344 9.523438 22.082031 9.59375 C 22.082031 9.59375 21.871094 9.875 22.011719 10.054688 C 22.152344 10.230469 22.433594 9.945312 22.433594 9.945312 C 22.433594 9.945312 22.820312 9.453125 23.351562 9.453125 C 23.878906 9.453125 24.164062 9.664062 24.164062 9.664062 C 24.164062 9.664062 24.410156 9.839844 24.585938 9.664062 C 24.761719 9.453125 24.585938 9.242188 24.585938 9.242188 Z M 24.585938 9.242188 "/>
</g>
</svg>
